<svg id="Layer_1" data-name="Layer 1" xmlns="http://www.w3.org/2000/svg" viewBox="0 0 44 44"><defs><style>.cls-1{fill:#7ac259;}</style></defs><title>Artboard 1</title><path class="cls-1" d="M42.46,22.49c-2.11-1.51-5.4-2.27-9.76-2.27a56.71,56.71,0,0,0-10.55,1.15c-.06,0-.07,0-.54.11l-.25.06-.13,0-.29.07a2.79,2.79,0,1,0,1.75,5.3l.24-.1a23.63,23.63,0,0,1,9.39-1.76c1,0,2.08.05,3.12.15a26,26,0,0,1-4.67,3.53,23,23,0,0,1-6,2.62,11.35,11.35,0,0,1-2.57.39,11.26,11.26,0,0,1-2.65-.28,22.35,22.35,0,0,1-6.2-2.43A23.41,23.41,0,0,1,7.88,25,12.23,12.23,0,0,1,6.2,22.86a5.23,5.23,0,0,1-.82-2.12,2.2,2.2,0,0,1,.2-1.22,3.33,3.33,0,0,1,1-1.11c.41-.27.83-.5,1.19-.69a28.11,28.11,0,0,1,2.83-1.32,31.19,31.19,0,0,1,5.2-1.58,30,30,0,0,1,6.92-.65,29.48,29.48,0,0,1,6.81,1,32.47,32.47,0,0,1,6.63,2.58l1.17.63a4.51,4.51,0,0,1,.95.65l.17.16h5l-.19-.72a6.16,6.16,0,0,0-1.55-2.71,11.41,11.41,0,0,0-2.92-2l-1.15-.59A5.93,5.93,0,0,0,26.37,9.71c-.48-.06-1-.12-1.42-.16a34.53,34.53,0,0,0-7.08.12l-.13,0a5.93,5.93,0,0,0-11.3,2.49A5.87,5.87,0,0,0,6.5,13c-.69.34-1.32.68-1.92,1-.23.14-.48.29-.73.46l-.08.05A8.36,8.36,0,0,0,1.6,17,6.81,6.81,0,0,0,.67,19.8,9,9,0,0,0,2.22,25.4a19.54,19.54,0,0,0,4.26,4.7,30.76,30.76,0,0,0,6.25,4,25,25,0,0,0,6.54,2.18A15.86,15.86,0,0,0,22,36.5h.34A16,16,0,0,0,25.74,36a27,27,0,0,0,6.95-2.89,31.4,31.4,0,0,0,6-4.41,18,18,0,0,0,3.76-4.82C42.59,23.57,43,22.87,42.46,22.49ZM31.87,8.21a4.06,4.06,0,0,1,2.89,4.14s-.77-.75-5-1.52C29.77,10.83,32,10,31.87,8.21Zm-19.51,0c-.17,1.79,2.11,2.62,2.11,2.62-4.22.77-5,1.52-5,1.52A4.06,4.06,0,0,1,12.37,8.21Z"/></svg>