<?xml version="1.0" encoding="utf-8"?>
<!-- Generator: Adobe Illustrator 20.1.0, SVG Export Plug-In . SVG Version: 6.00 Build 0)  -->
<!DOCTYPE svg PUBLIC "-//W3C//DTD SVG 1.1//EN" "http://www.w3.org/Graphics/SVG/1.1/DTD/svg11.dtd">
<svg version="1.1" id="Layer_1" xmlns="http://www.w3.org/2000/svg" xmlns:xlink="http://www.w3.org/1999/xlink" x="0px" y="0px"
	 viewBox="0 0 223 44" style="enable-background:new 0 0 223 44;" xml:space="preserve">
<style type="text/css">
	.st0{fill:#7AC259;}
	.st1{fill:#231F20;}
</style>
<title>Artboard 1</title>
<path class="st0" d="M42.5,22.5c-2.1-1.5-5.4-2.3-9.8-2.3c-3.5,0.1-7.1,0.4-10.5,1.1c-0.1,0-0.1,0-0.5,0.1l-0.2,0.1h-0.1l-0.3,0.1
	c-1.5,0.5-2.3,2.1-1.8,3.5c0.5,1.5,2.1,2.3,3.5,1.8l0.2-0.1c3-1.2,6.2-1.8,9.4-1.8c1,0,2.1,0,3.1,0.1c-1.4,1.3-3,2.5-4.7,3.5
	c-1.9,1.2-3.9,2-6,2.6c-0.8,0.2-1.7,0.4-2.6,0.4c-0.9,0-1.8-0.1-2.6-0.3c-2.2-0.5-4.3-1.3-6.2-2.4c-2-1.1-3.9-2.4-5.5-4
	c-0.6-0.6-1.2-1.4-1.7-2.1c-0.4-0.6-0.7-1.4-0.8-2.1c-0.1-0.4,0-0.8,0.2-1.2c0.2-0.4,0.6-0.8,1-1.1c0.4-0.3,0.8-0.5,1.2-0.7
	c0.9-0.5,1.9-0.9,2.8-1.3c1.7-0.7,3.4-1.2,5.2-1.6c2.3-0.5,4.6-0.7,6.9-0.6c2.3,0.1,4.6,0.4,6.8,1c2.3,0.6,4.5,1.5,6.6,2.6l1.2,0.6
	c0.3,0.2,0.7,0.4,1,0.6l0.2,0.2h5l-0.2-0.7c-0.3-1-0.8-2-1.5-2.7c-0.9-0.8-1.8-1.5-2.9-2l-1.2-0.6c0.6-3.2-1.5-6.3-4.7-6.9
	c-2.7-0.5-5.5,0.9-6.6,3.5c-0.5-0.1-1-0.1-1.4-0.2c-2.4-0.2-4.7-0.2-7.1,0.1h-0.1c-1.4-3-4.9-4.2-7.9-2.9c-2.1,1-3.4,3.1-3.4,5.3
	c0,0.3,0,0.6,0.1,0.8c-0.7,0.3-1.3,0.7-1.9,1c-0.2,0.1-0.5,0.3-0.7,0.5l-0.1,0.1C2.9,15.2,2.2,16,1.6,17c-0.5,0.9-0.8,1.8-0.9,2.8
	c-0.1,2,0.4,4,1.5,5.6c1.2,1.8,2.6,3.4,4.3,4.7c1.9,1.6,4,2.9,6.2,4c2.1,1,4.3,1.8,6.5,2.2c0.9,0.2,1.8,0.2,2.7,0.2h0.3
	c1.1,0,2.3-0.2,3.4-0.5c2.4-0.6,4.8-1.6,6.9-2.9c2.2-1.2,4.2-2.7,6-4.4c1.5-1.4,2.8-3,3.8-4.8C42.6,23.6,43,22.9,42.5,22.5z
	 M31.9,8.2c1.8,0.5,3,2.3,2.9,4.1c0,0-0.8-0.8-5-1.5C29.8,10.8,32,10,31.9,8.2z M12.4,8.2c-0.2,1.8,2.1,2.6,2.1,2.6
	c-4.2,0.8-5,1.5-5,1.5C9.4,10.5,10.6,8.7,12.4,8.2L12.4,8.2z"/>
<g>
	<path class="st1" d="M72.7,14v16.1c0,6-3.1,9.4-8.5,9.4c-2.9,0-6-0.9-7.7-1.9c-0.4-0.2-0.6-0.6-0.6-1.3c0-0.7,0.6-1.5,1.4-1.5
		c0.3,0,0.5,0.1,0.6,0.1c1.5,0.8,3.5,1.4,5.9,1.4c3.7,0,5.5-2,5.5-5.9v-2.4c-1.5,1.6-3.5,2.7-6.2,2.7c-4,0-8.7-3-8.7-9.4
		s4.7-9.4,8.7-9.4c2.7,0,4.7,1.2,6.2,2.7V14c0-0.9,0.7-1.7,1.6-1.7C71.9,12.4,72.7,13.1,72.7,14z M69.4,17.8c-1.3-1.4-3-2.7-5.5-2.7
		c-3.4,0-6.1,2.1-6.1,6.4s2.7,6.4,6.1,6.4c2.5,0,4.1-1.3,5.5-2.7V17.8z"/>
	<path class="st1" d="M89,13.8c0,0.9-0.7,1.5-1.7,1.5h-0.2c-2.4,0-4.3,1.3-5.6,3.2v10.9c0,0.9-0.8,1.6-1.7,1.6s-1.6-0.7-1.6-1.6V14
		c0-0.9,0.7-1.7,1.6-1.7s1.7,0.8,1.7,1.7v1.5c1.3-1.7,3.2-3.4,5.6-3.4h0.2C88.4,12.2,89,12.9,89,13.8z"/>
	<path class="st1" d="M109.6,21.7c0,5.7-3.7,9.5-9.2,9.5c-5.6,0-9.2-3.9-9.2-9.5s3.6-9.5,9.2-9.5C105.9,12.2,109.6,16,109.6,21.7z
		 M106.3,21.7c0-4.8-3.2-6.5-5.9-6.5c-2.8,0-5.9,1.8-5.9,6.5c0,4.8,3.2,6.6,5.9,6.6C103.1,28.3,106.3,26.5,106.3,21.7z"/>
	<path class="st1" d="M129.7,29.5c0,1-0.7,1.6-1.7,1.6c-0.5,0-1-0.3-1.3-0.7l-6.2-8.4l-3.1,2.8v4.6c0,0.9-0.8,1.6-1.7,1.6
		c-0.9,0-1.6-0.7-1.6-1.6V6.1c0-0.9,0.7-1.7,1.6-1.7c0.9,0,1.7,0.8,1.7,1.7v14.7l8.6-7.9c0.3-0.3,0.6-0.5,1.1-0.5
		c1.2,0,1.6,0.9,1.6,1.6c0,0.3-0.1,0.7-0.6,1.2l-5.2,4.6l6.5,8.6C129.6,28.8,129.7,29.1,129.7,29.5z"/>
	<path class="st1" d="M158.2,18.3c-0.1,7.5-5,12.9-12.6,12.9c-7.7,0-12.5-5.4-12.6-12.9c0.1-7.5,4.9-12.9,12.6-12.9
		C153.2,5.4,158,10.8,158.2,18.3z M154.9,18.3c0-5.5-3.4-9.9-9.4-9.9c-6,0-9.4,4.3-9.4,9.9s3.4,9.9,9.4,9.9
		C151.5,28.2,154.9,23.9,154.9,18.3z"/>
	<path class="st1" d="M166.5,6.1v23.4c0,0.9-0.7,1.6-1.7,1.6c-0.9,0-1.6-0.7-1.6-1.6V6.1c0-0.9,0.7-1.7,1.6-1.7
		C165.8,4.5,166.5,5.2,166.5,6.1z"/>
	<path class="st1" d="M186.9,19.3v10.2c0,0.9-0.8,1.6-1.7,1.6s-1.6-0.7-1.6-1.6v-0.9c-1.3,1.3-3.4,2.7-6.8,2.7c-3.1,0-5.9-2-5.9-5.4
		s2.7-5.8,8.3-5.8h4.4v-0.3c0-3.2-1.6-4.5-4.8-4.5c-2,0-3.5,0.4-4.8,0.9c-0.1,0-0.3,0.1-0.5,0.1c-0.7,0-1.3-0.6-1.3-1.4
		c0-0.6,0.3-1.1,0.9-1.4c1.7-0.7,3.7-1.3,6.2-1.3C184.7,12.2,186.9,15.8,186.9,19.3z M183.7,25.7v-3h-3.9c-3.4,0-5.4,0.8-5.4,2.8
		c0,1.5,0.9,2.9,3.8,2.9C180.4,28.4,182.4,27.1,183.7,25.7z"/>
</g>
</svg>
